<?xml version="1.0" encoding="utf-8"?>
<!-- Generator: Adobe Illustrator 16.0.0, SVG Export Plug-In . SVG Version: 6.00 Build 0)  -->
<!DOCTYPE svg PUBLIC "-//W3C//DTD SVG 1.1//EN" "http://www.w3.org/Graphics/SVG/1.1/DTD/svg11.dtd">
<svg version="1.1" id="Layer_1" xmlns="http://www.w3.org/2000/svg" xmlns:xlink="http://www.w3.org/1999/xlink" x="0px" y="0px"
	 width="485px" height="83px" viewBox="0 0 485 83" enable-background="new 0 0 485 83" xml:space="preserve">
<g>
	<text transform="matrix(1 0 0 1 85.7891 64.0977)" font-family="'Poppins-ExtraBold'" font-size="72">AwanArdy</text>
	<g>
		<g>
			<g transform="translate(0.000000,3093.000000) scale(0.100000,-0.100000)">
				<path d="M385.176,30557.242l-357.578-367.256l357.578-0.068c196.67-0.029,357.607-0.029,357.656,0.02
					s0.049,165.332,0.02,367.334l-0.068,367.217L385.176,30557.242z M682.178,30358.795c11.904-2.568,22.236-9.619,28.896-19.727
					c1.748-2.705,2.393-3.936,3.438-6.631c1.426-3.672,2.725-9.785,2.236-10.381c-0.293-0.352-2.734-0.439-3.232-0.137
					c-0.166,0.088-0.625,1.143-1.025,2.305c-5.938,16.963-17.012,26.963-31.484,28.408c-12.402,1.26-25.908-5.791-32.139-16.787
					c-4.707-8.291-8.008-22.91-8.535-37.803c-0.059-2.568-0.039-4.355,0.078-4.355s0.469,0.381,0.791,0.84
					c0.85,1.289,4.463,4.609,6.455,5.957c5.205,3.594,11.475,5.977,18.506,6.992c8.652,1.23,16.797,0.684,23.691-1.572
					c14.395-4.746,25.273-16.777,29.307-32.412c2.1-8.018,2.549-17.627,1.172-24.365c-1.729-8.506-6.152-16.543-12.686-23.018
					c-9.951-9.893-22.998-14.932-36.045-13.906c-14.229,1.094-23.779,5.107-31.689,13.32
					c-10.977,11.436-16.279,31.182-15.732,58.672c0.381,19.15,3.428,34.277,9.346,46.523c3.252,6.748,6.67,11.807,10.977,16.123
					c7.002,7.08,14.746,11.025,24.639,12.52c0.391,0.039,2.969,0.078,5.693,0.029
					C678.799,30359.313,680.293,30359.195,682.178,30358.795z M606.172,30246.656h9.15v-2.021v-2.021h-9.15h-9.15v-14.727v-14.727
					l-8.115,0.049l-8.154,0.059l-0.068,14.688l-0.049,14.658h-35.156c-19.346,0-35.166,0.068-35.166,0.146
					c0,0.117,70.322,93.506,82.529,109.619l4.063,5.342l0.078-55.518l0.039-55.547H606.172z"/>
				<path d="M668.662,30303.053c-5.566-0.996-10.459-3.584-14.951-7.93c-7.07-6.855-11.621-16.445-13.105-27.803
					c-0.479-3.564-0.527-10.283-0.127-13.652c1.426-11.699,6.23-21.982,13.398-28.799c6.895-6.543,15.586-9.268,23.955-7.529
					c7.051,1.445,13.779,6.172,18.857,13.281c3.096,4.277,6.25,11.592,7.461,17.217c1.641,7.705,1.641,16.797,0,24.473
					c-2.637,12.217-10.195,23.213-19.141,27.969C679.873,30302.984,673.955,30304,668.662,30303.053z"/>
				<path d="M550.674,30286.207l-29.834-39.434l29.814-0.068c16.387-0.029,29.863-0.029,29.902,0.02
					c0.049,0.049,0.049,17.822,0.029,39.502l-0.068,39.424L550.674,30286.207z"/>
			</g>
		</g>
		<rect x="50.077" y="55.711" width="22.708" height="16.75"/>
	</g>
</g>
</svg>
